<?xml version="1.0" encoding="UTF-8"?>
<svg id="Layer_1" data-name="Layer 1" xmlns="http://www.w3.org/2000/svg" viewBox="0 0 157.98 180">
  <path d="m.01,87.6c1.09-.96,1.24-2.3,1.5-3.61.77-3.74,2.24-7.19,4.65-10.17,3.95-4.89,9.08-7.23,15.37-6.54,4.37.47,8.09,2.51,11.31,5.43,5.05,4.56,7.93,10.36,9.39,16.92,1.21,5.46,1,10.86-.72,16.18-1.02,3.16-2.58,6.03-4.84,8.48-5.08,5.48-12.43,7.06-19.33,4.16-4.14-1.74-7.43-4.57-10.09-8.14-2.96-3.95-4.85-8.39-5.77-13.24-.25-1.33-.4-2.65-1.48-3.63v-5.84h.01Z" fill="#fdc501"/>
  <path d="m138.51,154.32c-.4,2.75-.59,5.56-1.24,8.26-1.57,6.57-5.52,11.39-11.66,14.07-9.42,4.11-19.03,4.74-28.55.15-2.19-1.05-4.27-2.31-6.44-3.41-1.95-.99-3.92-1.96-5.94-2.77-3.54-1.43-7.15-1.41-10.66.05-2.35.97-4.61,2.17-6.88,3.31-2.39,1.19-4.72,2.51-7.15,3.63-4.17,1.89-8.59,2.53-13.16,2.21-3.03-.21-6.05-.51-8.99-1.36-9.56-2.79-16.16-9.11-17.22-21.03-.34-3.9.05-7.78.91-11.6,1.25-5.52,4.07-10.16,8.41-13.74,2.72-2.24,5.65-4.22,8.54-6.22,1.89-1.31,3.89-2.5,5.89-3.64,3.47-1.98,6.15-4.75,8.2-8.14,1.31-2.19,2.44-4.48,3.66-6.72,1.45-2.67,2.79-5.41,4.4-7.97,3.79-6.09,9.27-9.44,16.5-9.88,2.82-.18,5.61-.06,8.34.52,4.96,1.07,8.96,3.79,11.79,7.98,1.83,2.72,3.32,5.65,4.93,8.5,1.3,2.34,2.44,4.76,3.79,7.06,2.11,3.64,4.95,6.57,8.62,8.72,3.15,1.84,6.25,3.76,9.23,5.86,2.37,1.67,4.67,3.5,6.77,5.52,4.38,4.21,6.63,9.51,7.33,15.5.2,1.69.25,3.4.38,5.09.08,0,.16.03.24.04h-.01Z" fill="#fdc501"/>
  <path d="m77.36,62.6c.08,4.27-.78,9.12-2.84,13.76-1.05,2.36-2.39,4.52-4.24,6.3-4.11,3.97-8.92,5.17-14.43,3.58-3.6-1.04-6.57-3.11-9.21-5.67-3.35-3.27-5.87-7.12-7.78-11.36-3.25-7.19-4.88-14.73-4.47-22.65.21-4.16,1.06-8.17,2.73-12,.99-2.25,2.25-4.32,3.94-6.09,4.31-4.48,9.49-5.58,15.35-3.82,3.1.93,5.67,2.74,8.01,4.9,3.54,3.26,6.19,7.16,8.21,11.5,3.08,6.58,4.76,13.48,4.72,21.56h.01Z" fill="#fdc501"/>
  <path d="m81.51,62.47c-.01-9.17,2.08-16.94,6.11-24.19,2.39-4.3,5.43-8.06,9.46-10.93,18.95-11.57,1.15-27.35,5.92-27.35,17.91,8.73,12.06,25.25,15.37,29.13,2.49,2.93,4.02,6.35,4.93,10.04,2.02,8.12,1.36,16.14-1.06,24.08-1.83,5.99-4.66,11.47-8.92,16.12-2.83,3.08-6.08,5.6-10.16,6.81-5.77,1.72-10.79.4-14.98-3.92-2.32-2.4-3.82-5.32-4.89-8.45-1.36-3.95-1.84-8.03-1.77-11.34h-.03Z" fill="#fdc501"/>
  <path d="m115.89,96.2c.28-9.12,3.22-17.13,10.02-23.43,3.56-3.31,7.76-5.41,12.73-5.58,5.47-.2,9.92,1.95,13.49,6,2.88,3.28,4.61,7.18,5.32,11.43,1.58,9.56-.4,18.36-6.27,26.16-2.3,3.06-5.17,5.47-8.62,7.16-7.91,3.88-16.52,1.81-21.75-5.27-3.61-4.88-4.99-10.46-4.93-16.46h0Z" fill="#fdc501"/>
</svg>