<?xml version="1.0" encoding="UTF-8"?>
<svg id="Layer_1" data-name="Layer 1" xmlns="http://www.w3.org/2000/svg" viewBox="0 0 14.04 16">
  <path d="m0,7.79c.1-.09.11-.2.13-.32.07-.33.2-.64.41-.9.35-.43.81-.64,1.37-.58.39.04.72.22,1.01.48.45.41.71.92.83,1.5.11.49.09.97-.06,1.44-.09.28-.23.54-.43.75-.45.49-1.1.63-1.72.37-.37-.15-.66-.41-.9-.72-.26-.35-.43-.75-.51-1.18-.02-.12-.04-.24-.13-.32v-.52h0Z" fill="#fdc501"/>
  <path d="m12.31,13.72c-.04.24-.05.49-.11.73-.14.58-.49,1.01-1.04,1.25-.84.36-1.69.42-2.54.01-.19-.09-.38-.21-.57-.3-.17-.09-.35-.17-.53-.25-.31-.13-.64-.13-.95,0-.21.09-.41.19-.61.29-.21.11-.42.22-.64.32-.37.17-.76.22-1.17.2-.27-.02-.54-.04-.8-.12-.85-.25-1.44-.81-1.53-1.87-.03-.35,0-.69.08-1.03.11-.49.36-.9.75-1.22.24-.2.5-.38.76-.55.17-.12.35-.22.52-.32.31-.18.55-.42.73-.72.12-.19.22-.4.33-.6.13-.24.25-.48.39-.71.34-.54.82-.84,1.47-.88.25-.02.5,0,.74.05.44.1.8.34,1.05.71.16.24.3.5.44.76.12.21.22.42.34.63.19.32.44.58.77.77.28.16.56.33.82.52.21.15.42.31.6.49.39.37.59.85.65,1.38.02.15.02.3.03.45,0,0,.01,0,.02,0h0Z" fill="#fdc501"/>
  <path d="m6.88,5.56c0,.38-.07.81-.25,1.22-.09.21-.21.4-.38.56-.36.35-.79.46-1.28.32-.32-.09-.58-.28-.82-.5-.3-.29-.52-.63-.69-1.01-.29-.64-.43-1.31-.4-2.01.02-.37.09-.73.24-1.07.09-.2.2-.38.35-.54.38-.4.84-.5,1.36-.34.28.08.5.24.71.44.31.29.55.64.73,1.02.27.59.42,1.2.42,1.92h0Z" fill="#fdc501"/>
  <path d="m7.25,5.55c0-.82.19-1.51.54-2.15.21-.38.48-.72.84-.97,1.68-1.03.1-2.43.53-2.43,1.59.78,1.07,2.24,1.37,2.59.22.26.36.56.44.89.18.72.12,1.44-.09,2.14-.16.53-.41,1.02-.79,1.43-.25.27-.54.5-.9.61-.51.15-.96.04-1.33-.35-.21-.21-.34-.47-.43-.75-.12-.35-.16-.71-.16-1.01h0Z" fill="#fdc501"/>
  <path d="m10.3,8.55c.02-.81.29-1.52.89-2.08.32-.29.69-.48,1.13-.5.49-.02.88.17,1.2.53.26.29.41.64.47,1.02.14.85-.04,1.63-.56,2.33-.2.27-.46.49-.77.64-.7.34-1.47.16-1.93-.47-.32-.43-.44-.93-.44-1.46h0Z" fill="#fdc501"/>
</svg>