<?xml version="1.0" encoding="UTF-8"?>
<svg id="Layer_1" data-name="Layer 1" xmlns="http://www.w3.org/2000/svg" viewBox="0 0 28.08 32">
  <path d="m0,15.57c.19-.17.22-.41.27-.64.14-.66.4-1.28.83-1.81.7-.87,1.61-1.28,2.73-1.16.78.08,1.44.45,2.01.97.9.81,1.41,1.84,1.67,3.01.22.97.18,1.93-.13,2.88-.18.56-.46,1.07-.86,1.51-.9.97-2.21,1.26-3.44.74-.74-.31-1.32-.81-1.79-1.45-.53-.7-.86-1.49-1.03-2.35-.04-.24-.07-.47-.26-.64v-1.04h0Z" fill="#fdc501"/>
  <path d="m24.62,27.44c-.07.49-.11.99-.22,1.47-.28,1.17-.98,2.03-2.07,2.5-1.68.73-3.38.84-5.08.03-.39-.19-.76-.41-1.15-.61-.35-.18-.7-.35-1.06-.49-.63-.25-1.27-.25-1.9,0-.42.17-.82.39-1.22.59-.42.21-.84.45-1.27.64-.74.34-1.53.45-2.34.39-.54-.04-1.08-.09-1.6-.24-1.7-.5-2.87-1.62-3.06-3.74-.06-.69,0-1.38.16-2.06.22-.98.72-1.81,1.5-2.44.48-.4,1-.75,1.52-1.1.34-.23.69-.44,1.05-.65.62-.35,1.09-.84,1.46-1.45.23-.39.43-.8.65-1.19.26-.47.5-.96.78-1.42.67-1.08,1.65-1.68,2.93-1.76.5-.03,1-.01,1.48.09.88.19,1.59.67,2.1,1.42.33.48.59,1,.88,1.51.23.42.43.85.67,1.26.38.65.88,1.17,1.53,1.55.56.33,1.11.67,1.64,1.04.42.3.83.62,1.2.98.78.75,1.18,1.69,1.3,2.76.04.3.04.6.07.91.01,0,.03,0,.04,0h0Z" fill="#fdc501"/>
  <path d="m13.75,11.13c.01.76-.14,1.62-.51,2.45-.19.42-.42.8-.75,1.12-.73.71-1.59.92-2.56.64-.64-.18-1.17-.55-1.64-1.01-.6-.58-1.04-1.27-1.38-2.02-.58-1.28-.87-2.62-.8-4.03.04-.74.19-1.45.49-2.13.18-.4.4-.77.7-1.08.77-.8,1.69-.99,2.73-.68.55.17,1.01.49,1.42.87.63.58,1.1,1.27,1.46,2.04.55,1.17.85,2.4.84,3.83h0Z" fill="#fdc501"/>
  <path d="m14.49,11.11c0-1.63.37-3.01,1.09-4.3.42-.76.97-1.43,1.68-1.94,3.37-2.06.2-4.86,1.05-4.86,3.18,1.55,2.14,4.49,2.73,5.18.44.52.71,1.13.88,1.79.36,1.44.24,2.87-.19,4.28-.33,1.06-.83,2.04-1.59,2.87-.5.55-1.08.99-1.81,1.21-1.03.31-1.92.07-2.66-.7-.41-.43-.68-.95-.87-1.5-.24-.7-.33-1.43-.31-2.02h0Z" fill="#fdc501"/>
  <path d="m20.6,17.1c.05-1.62.57-3.05,1.78-4.17.63-.59,1.38-.96,2.26-.99.97-.04,1.76.35,2.4,1.07.51.58.82,1.28.95,2.03.28,1.7-.07,3.26-1.11,4.65-.41.54-.92.97-1.53,1.27-1.41.69-2.94.32-3.87-.94-.64-.87-.89-1.86-.88-2.93h0Z" fill="#fdc501"/>
</svg>