<?xml version="1.0" encoding="UTF-8"?>
<svg id="Layer_1" data-name="Layer 1" xmlns="http://www.w3.org/2000/svg" viewBox="0 0 299.53 53.28">
  <g>
    <path d="m0,25.35c.31-.28.36-.66.44-1.05.22-1.08.65-2.08,1.35-2.94,1.15-1.41,2.63-2.09,4.45-1.89,1.26.14,2.34.73,3.27,1.57,1.46,1.32,2.29,3,2.72,4.9.35,1.58.29,3.14-.21,4.68-.3.91-.75,1.74-1.4,2.45-1.47,1.59-3.6,2.04-5.59,1.2-1.2-.5-2.15-1.32-2.92-2.35-.85-1.14-1.4-2.43-1.67-3.83-.07-.38-.12-.77-.43-1.05v-1.69Z" fill="#fdc501"/>
    <path d="m40.08,44.65c-.12.8-.17,1.61-.36,2.39-.45,1.9-1.6,3.3-3.38,4.07-2.73,1.19-5.5,1.37-8.26.04-.63-.3-1.24-.67-1.86-.99-.56-.28-1.13-.57-1.72-.8-1.02-.41-2.07-.41-3.08.01-.68.28-1.33.63-1.99.96-.69.34-1.37.73-2.07,1.05-1.21.55-2.49.73-3.81.64-.88-.06-1.75-.15-2.6-.39-2.77-.81-4.68-2.63-4.98-6.09-.1-1.13.01-2.25.26-3.35.36-1.6,1.18-2.94,2.44-3.98.78-.65,1.63-1.22,2.47-1.8.55-.38,1.12-.72,1.7-1.05,1-.57,1.78-1.37,2.37-2.35.38-.63.71-1.3,1.06-1.94.42-.77.81-1.56,1.27-2.31,1.1-1.76,2.68-2.73,4.77-2.86.82-.05,1.62-.02,2.41.15,1.44.31,2.59,1.1,3.41,2.31.53.78.96,1.63,1.42,2.46.38.68.71,1.38,1.1,2.04.61,1.05,1.43,1.9,2.49,2.52.91.53,1.81,1.09,2.67,1.7.69.48,1.35,1.01,1.96,1.6,1.27,1.22,1.92,2.75,2.12,4.49.06.49.07.98.11,1.47.02,0,.05,0,.07,0Z" fill="#fdc501"/>
    <path d="m22.38,18.11c.02,1.23-.23,2.64-.82,3.98-.3.68-.69,1.31-1.23,1.83-1.19,1.15-2.58,1.5-4.18,1.04-1.04-.3-1.9-.9-2.66-1.64-.97-.95-1.7-2.06-2.25-3.29-.94-2.08-1.41-4.26-1.29-6.56.06-1.2.31-2.37.79-3.47.28-.65.65-1.25,1.14-1.76,1.25-1.3,2.74-1.62,4.44-1.1.89.27,1.64.79,2.32,1.42,1.02.94,1.79,2.07,2.38,3.32.89,1.9,1.38,3.9,1.37,6.24Z" fill="#fdc501"/>
    <path d="m23.58,18.08c0-2.65.6-4.9,1.77-7,.69-1.24,1.57-2.33,2.74-3.16,5.48-3.35.33-7.91,1.71-7.91,5.18,2.52,3.49,7.31,4.45,8.43.72.85,1.16,1.84,1.43,2.91.58,2.35.39,4.67-.31,6.97-.53,1.73-1.35,3.32-2.58,4.67-.82.89-1.76,1.62-2.94,1.97-1.67.5-3.12.12-4.34-1.13-.67-.69-1.1-1.54-1.41-2.44-.39-1.14-.53-2.32-.51-3.28Z" fill="#fdc501"/>
    <path d="m33.53,27.84c.08-2.64.93-4.96,2.9-6.78,1.03-.96,2.24-1.56,3.68-1.62,1.58-.06,2.87.56,3.9,1.74.83.95,1.33,2.08,1.54,3.31.46,2.77-.12,5.31-1.81,7.57-.66.89-1.49,1.58-2.49,2.07-2.29,1.12-4.78.52-6.29-1.52-1.04-1.41-1.44-3.03-1.43-4.76Z" fill="#fdc501"/>
  </g>
  <g>
    <path d="m68.95,53.28c-3.42,0-6.12-.62-8.11-1.87-1.99-1.24-3.39-2.99-4.21-5.24-.82-2.25-1.23-4.89-1.23-7.94v-16.27c0-3.12.41-5.8,1.23-8.05.82-2.25,2.22-3.98,4.21-5.21,1.99-1.23,4.69-1.84,8.11-1.84s5.95.55,7.83,1.64c1.87,1.1,3.2,2.63,3.98,4.6.78,1.97,1.17,4.23,1.17,6.8v3.9h-9.75v-4.51c0-.89-.05-1.75-.14-2.56-.09-.82-.36-1.49-.81-2.03-.45-.54-1.21-.81-2.28-.81s-1.81.28-2.31.84c-.5.56-.82,1.25-.95,2.09-.13.84-.19,1.72-.19,2.65v21.23c0,1,.08,1.92.25,2.76.17.84.5,1.5,1,2.01.5.5,1.23.75,2.2.75,1.04,0,1.78-.27,2.23-.81.45-.54.72-1.23.84-2.09.11-.85.17-1.73.17-2.62v-4.74h9.75v3.9c0,2.56-.38,4.86-1.14,6.88-.76,2.02-2.08,3.62-3.96,4.79-1.88,1.17-4.5,1.75-7.88,1.75Z" fill="#fff"/>
    <path d="m87.39,52.61V7.49h9.97v38.38h10.36v6.74h-20.33Z" fill="#fff"/>
    <path d="m109.89,52.61l8.52-45.13h11.36l8.41,45.13h-9.19l-1.5-9.53h-6.63l-1.56,9.53h-9.41Zm11.87-15.49h4.79l-2.4-17.6-2.4,17.6Z" fill="#fff"/>
    <path d="m145.38,52.61l-5.46-45.13h8.47l2.67,26.3,3.4-26.24h6.63l3.57,26.07,2.73-26.13h8.36l-5.4,45.13h-8.69l-3.84-27.24-3.62,27.24h-8.8Z" fill="#fff"/>
    <path d="m193.4,53.28c-3.42,0-6.12-.62-8.11-1.87-1.99-1.24-3.39-2.99-4.21-5.24-.82-2.25-1.23-4.89-1.23-7.94v-16.27c0-3.12.41-5.8,1.23-8.05.82-2.25,2.22-3.98,4.21-5.21,1.99-1.23,4.69-1.84,8.11-1.84s5.95.55,7.83,1.64c1.87,1.1,3.2,2.63,3.98,4.6.78,1.97,1.17,4.23,1.17,6.8v3.9h-9.75v-4.51c0-.89-.05-1.75-.14-2.56-.09-.82-.36-1.49-.81-2.03-.45-.54-1.21-.81-2.28-.81s-1.81.28-2.31.84c-.5.56-.82,1.25-.95,2.09-.13.84-.19,1.72-.19,2.65v21.23c0,1,.08,1.92.25,2.76.17.84.5,1.5,1,2.01.5.5,1.23.75,2.2.75,1.04,0,1.78-.27,2.23-.81.45-.54.72-1.23.84-2.09.11-.85.17-1.73.17-2.62v-4.74h9.75v3.9c0,2.56-.38,4.86-1.14,6.88-.76,2.02-2.08,3.62-3.96,4.79-1.88,1.17-4.5,1.75-7.88,1.75Z" fill="#fff"/>
    <path d="m211.84,52.61V7.49h9.97v38.38h10.36v6.74h-20.33Z" fill="#fff"/>
    <path d="m234.35,52.61l8.52-45.13h11.36l8.41,45.13h-9.19l-1.5-9.53h-6.63l-1.56,9.53h-9.41Zm11.87-15.49h4.79l-2.4-17.6-2.4,17.6Z" fill="#fff"/>
    <path d="m269.83,52.61l-5.46-45.13h8.47l2.67,26.3,3.4-26.24h6.63l3.57,26.07,1.39-11.83c.08-.78.82-1.37,1.59-1.18.44.11,1.69,1.23,2.53,1.24,1.63.03,2.36-2.74,3.66-1.98.33.19.5.59.45.97l-3.93,31.78h-8.69l-3.84-27.24-3.62,27.24h-8.8Z" fill="#fff"/>
  </g>
  <path d="m290.86,15.25c0-1.85.42-3.42,1.23-4.88.48-.87,1.1-1.63,1.91-2.2,3.82-2.33.23-5.52,1.19-5.52,3.61,1.76,2.43,5.09,3.1,5.88.5.59.81,1.28.99,2.03.41,1.64.28,3.26-.21,4.86-.37,1.21-.94,2.31-1.8,3.25-.57.62-1.23,1.13-2.05,1.37-1.17.35-2.18.08-3.02-.79-.47-.48-.77-1.07-.99-1.7-.27-.8-.37-1.62-.36-2.29Z" fill="#fdc501"/>
</svg>