<?xml version="1.0" encoding="UTF-8"?>
<svg id="Layer_1" data-name="Layer 1" xmlns="http://www.w3.org/2000/svg" viewBox="0 0 125.04 142.49">
  <path d="m0,69.34c.86-.76.98-1.82,1.19-2.86.61-2.96,1.77-5.69,3.68-8.05,3.13-3.87,7.19-5.72,12.17-5.18,3.46.37,6.4,1.99,8.95,4.3,4,3.61,6.28,8.2,7.43,13.39.96,4.32.79,8.6-.57,12.81-.81,2.5-2.04,4.77-3.83,6.71-4.02,4.34-9.84,5.59-15.3,3.29-3.28-1.38-5.88-3.62-7.99-6.44-2.34-3.13-3.84-6.64-4.57-10.48-.2-1.05-.32-2.1-1.17-2.87v-4.62Z" fill="#fdc501"/>
  <path d="m109.63,122.16c-.32,2.18-.47,4.4-.98,6.54-1.24,5.2-4.37,9.02-9.23,11.14-7.46,3.25-15.06,3.75-22.6.12-1.73-.83-3.38-1.83-5.1-2.7-1.54-.78-3.1-1.55-4.7-2.19-2.8-1.13-5.66-1.12-8.44.04-1.86.77-3.65,1.72-5.45,2.62-1.89.94-3.74,1.99-5.66,2.87-3.3,1.5-6.8,2-10.42,1.75-2.4-.17-4.79-.4-7.12-1.08-7.57-2.21-12.79-7.21-13.63-16.65-.27-3.09.04-6.16.72-9.18.99-4.37,3.22-8.04,6.66-10.88,2.15-1.77,4.47-3.34,6.76-4.92,1.5-1.04,3.08-1.98,4.66-2.88,2.75-1.57,4.87-3.76,6.49-6.44,1.04-1.73,1.93-3.55,2.9-5.32,1.15-2.11,2.21-4.28,3.48-6.31,3-4.82,7.34-7.47,13.06-7.82,2.23-.14,4.44-.05,6.6.41,3.93.85,7.09,3,9.33,6.32,1.45,2.15,2.63,4.47,3.9,6.73,1.03,1.85,1.93,3.77,3,5.59,1.67,2.88,3.92,5.2,6.82,6.9,2.49,1.46,4.95,2.98,7.31,4.64,1.88,1.32,3.7,2.77,5.36,4.37,3.47,3.33,5.25,7.53,5.8,12.27.16,1.34.2,2.69.3,4.03.06,0,.13.02.19.03Z" fill="#fdc501"/>
  <path d="m61.23,49.55c.06,3.38-.62,7.22-2.25,10.89-.83,1.87-1.89,3.58-3.36,4.99-3.25,3.14-7.06,4.09-11.42,2.83-2.85-.82-5.2-2.46-7.29-4.49-2.65-2.59-4.65-5.64-6.16-8.99-2.57-5.69-3.86-11.66-3.54-17.93.17-3.29.84-6.47,2.16-9.5.78-1.78,1.78-3.42,3.12-4.82,3.41-3.55,7.51-4.42,12.15-3.02,2.45.74,4.49,2.17,6.34,3.88,2.8,2.58,4.9,5.67,6.5,9.1,2.44,5.21,3.77,10.67,3.74,17.07Z" fill="#fdc501"/>
  <path d="m64.51,49.45c-.01-7.26,1.65-13.41,4.84-19.15,1.89-3.4,4.3-6.38,7.49-8.65,15-9.16.91-21.65,4.69-21.65,14.18,6.91,9.55,19.99,12.17,23.06,1.97,2.32,3.18,5.03,3.9,7.95,1.6,6.43,1.08,12.78-.84,19.06-1.45,4.74-3.69,9.08-7.06,12.76-2.24,2.44-4.81,4.43-8.04,5.39-4.57,1.36-8.54.32-11.86-3.1-1.84-1.9-3.02-4.21-3.87-6.69-1.08-3.13-1.46-6.36-1.4-8.98Z" fill="#fdc501"/>
  <path d="m91.73,76.15c.22-7.22,2.55-13.56,7.93-18.55,2.82-2.62,6.14-4.28,10.08-4.42,4.33-.16,7.85,1.54,10.68,4.75,2.28,2.6,3.65,5.68,4.21,9.05,1.25,7.57-.32,14.53-4.96,20.71-1.82,2.42-4.09,4.33-6.82,5.67-6.26,3.07-13.08,1.43-17.22-4.17-2.86-3.86-3.95-8.28-3.9-13.03Z" fill="#fdc501"/>
</svg>